<?xml version="1.0" encoding="UTF-8" standalone="no"?>
<!-- Created with Inkscape (http://www.inkscape.org/) -->

<svg
   width="512"
   height="512"
   viewBox="0 0 135.46666 135.46666"
   version="1.1"
   id="svg318"
   inkscape:version="1.2.2 (732a01da63, 2022-12-09)"
   sodipodi:docname="LogoRapiMed.svg"
   xmlns:inkscape="http://www.inkscape.org/namespaces/inkscape"
   xmlns:sodipodi="http://sodipodi.sourceforge.net/DTD/sodipodi-0.dtd"
   xmlns="http://www.w3.org/2000/svg"
   xmlns:svg="http://www.w3.org/2000/svg">
  <sodipodi:namedview
     id="namedview320"
     pagecolor="#ffffff"
     bordercolor="#000000"
     borderopacity="0.25"
     inkscape:showpageshadow="false"
     inkscape:pageopacity="0.0"
     inkscape:pagecheckerboard="0"
     inkscape:deskcolor="#d1d1d1"
     inkscape:document-units="mm"
     showgrid="false"
     showborder="false"
     borderlayer="false"
     shape-rendering="crispEdges"
     inkscape:zoom="0.4204826"
     inkscape:cx="211.66155"
     inkscape:cy="517.26278"
     inkscape:window-width="1920"
     inkscape:window-height="991"
     inkscape:window-x="-9"
     inkscape:window-y="-9"
     inkscape:window-maximized="1"
     inkscape:current-layer="layer1" />
  <defs
     id="defs315" />
  <g
     inkscape:label="Capa 1"
     inkscape:groupmode="layer"
     id="layer1">
    <g
       id="g454"
       transform="matrix(8.0000004,0,0,8.0000004,-446.78262,-234.3069)"
       inkscape:export-filename="..\..\..\..\..\Users\felix\OneDrive\Imágenes\Logos\IcoRapimed.png"
       inkscape:export-xdpi="96"
       inkscape:export-ydpi="96">
      <circle
         style="fill:#01607e;fill-opacity:1;stroke-width:0.206714"
         id="path2126-6"
         cx="64.314491"
         cy="37.755028"
         r="8.4666662"
         inkscape:export-filename="/var/www/html/rapimed/img/fav-ico.png"
         inkscape:export-xdpi="72"
         inkscape:export-ydpi="72" />
      <path
         style="fill:#ffffff;stroke-width:0.0200291"
         d="m 64.639186,43.639968 c -0.169027,-0.03239 -0.308431,-0.110257 -0.55983,-0.312671 -0.254939,-0.205268 -0.613043,-0.483254 -0.786363,-0.610433 -0.130242,-0.09557 -0.686333,-0.506931 -0.751094,-0.555612 -0.02754,-0.02071 -0.194283,-0.143267 -0.370539,-0.272366 -0.492273,-0.360567 -0.61563,-0.452309 -0.683141,-0.508059 -0.07832,-0.06467 -0.115844,-0.09435 -0.228252,-0.180522 -0.04954,-0.03796 -0.198225,-0.159319 -0.330416,-0.269656 -1.191117,-0.994201 -1.769514,-1.649095 -2.181756,-2.470304 -0.343224,-0.683725 -0.468937,-1.297395 -0.412846,-2.01532 0.03495,-0.447327 0.117881,-0.771914 0.294729,-1.153516 0.265206,-0.572262 0.76949,-1.127968 1.368594,-1.508149 0.351453,-0.223025 0.849905,-0.413694 1.301818,-0.49797 0.209466,-0.03906 0.317439,-0.04678 0.660963,-0.04722 0.45402,-5.65e-4 0.659316,0.03092 0.985765,0.151289 0.215976,0.07963 0.62761,0.291927 0.846905,0.436779 0.208231,0.137544 0.51451,0.380992 0.526356,0.41838 0.0045,0.01405 -0.11215,-0.03728 -0.259131,-0.114088 -0.535983,-0.28006 -0.916766,-0.382147 -1.425401,-0.382147 -1.136915,0 -2.10085,0.433551 -2.82244,1.269458 -0.311199,0.360499 -0.534506,0.826966 -0.629186,1.314306 -0.05242,0.269804 -0.05248,0.941733 -1.04e-4,1.171707 0.149129,0.654797 0.455714,1.244681 0.933635,1.796356 0.420665,0.485582 0.980651,0.983969 1.764831,1.570702 0.402234,0.300957 0.515201,0.380616 1.260487,0.888851 0.813216,0.554558 1.059611,0.728343 1.564999,1.103799 0.268814,0.199703 0.40944,0.258477 0.618438,0.258477 0.254566,0 0.302066,-0.02391 1.021234,-0.514106 0.726568,-0.495235 1.622852,-1.111312 1.862715,-1.280365 0.302221,-0.213005 -0.234736,0.215552 -0.731066,0.58348 -0.353633,0.262146 -0.467701,0.346148 -1.141664,0.840723 -0.253369,0.185929 -0.571235,0.41966 -0.70637,0.519402 -0.342437,0.25275 -0.466235,0.324003 -0.62608,0.36036 -0.151278,0.03441 -0.221784,0.03603 -0.365792,0.0084 z m 2.102117,-3.767658 c 0,-0.01377 -0.01759,-0.146714 -0.03905,-0.29543 -0.02146,-0.148718 -0.06281,-0.464177 -0.0919,-0.701022 -0.08407,-0.684457 -0.157238,-1.269903 -0.280335,-2.243268 -0.02717,-0.214813 -0.06382,-0.507739 -0.08143,-0.650949 -0.04779,-0.388405 -0.05361,-0.393918 -0.103417,-0.09801 -0.06095,0.362068 -0.179563,1.094185 -0.202466,1.249687 -0.0105,0.0716 -0.04192,0.265386 -0.06972,0.430627 -0.0278,0.16524 -0.07836,0.4807 -0.112357,0.701022 -0.07088,0.459397 -0.09887,0.626313 -0.11335,0.675983 -0.0089,0.03057 -0.411192,0.03506 -0.224432,0.03506 H 65.20864 l -0.04435,-0.2053 c -0.0244,-0.112911 -0.08444,-0.381057 -0.133431,-0.595871 -0.04899,-0.214813 -0.130304,-0.575337 -0.180694,-0.801166 -0.107132,-0.480086 -0.133298,-0.585815 -0.14972,-0.604852 -0.0067,-0.0077 -0.11964,0.185276 -0.251113,0.428827 l -0.239045,0.442816 -1.052838,-0.01315 c -0.57906,-0.0073 -1.571093,-0.01918 -2.204516,-0.02656 -0.633423,-0.0074 -1.142663,-0.01597 -1.131648,-0.01908 0.02151,-0.006 1.733603,-0.05341 3.204669,-0.08858 0.495722,-0.01186 0.920667,-0.02548 0.944321,-0.03029 0.02365,-0.0048 0.06074,-0.03809 0.08241,-0.07397 0.437637,-0.72454 0.574463,-0.949591 0.632332,-1.040054 0.07089,-0.110811 0.07671,-0.113603 0.207218,-0.09932 0.01298,0.0014 0.04303,0.09046 0.06678,0.197867 0.02375,0.107408 0.06399,0.285416 0.0894,0.395577 0.02542,0.110154 0.07477,0.326475 0.109681,0.4807 0.190775,0.842853 0.258538,1.118622 0.268231,1.09159 0.0059,-0.01653 0.03351,-0.183267 0.06129,-0.370539 0.02778,-0.187273 0.08256,-0.556811 0.121731,-0.821197 0.03918,-0.264385 0.09322,-0.624909 0.120099,-0.801167 0.02689,-0.176257 0.06308,-0.419611 0.08043,-0.540788 0.09549,-0.666924 0.100752,-1.267793 0.197247,-1.291883 l 0.02401,-0.110154 0.153215,-0.0059 c 0.132901,-0.0051 0.154626,-10e-4 0.163854,0.03005 0.01061,0.0356 0.03802,0.230421 0.151868,1.077383 0.09488,0.705898 0.225853,1.673648 0.372712,2.754011 0.03818,0.280911 0.07935,0.585866 0.09149,0.677682 0.01214,0.09181 0.02911,0.159413 0.03771,0.150218 0.01619,-0.01728 0.04536,-0.117967 0.419865,-1.448804 0.27315,-0.970654 0.283644,-1.006373 0.30332,-1.032452 0.0087,-0.01154 0.04957,-0.0205 0.09081,-0.0199 l 0.457627,0.548736 0.180263,0.260166 0.180262,0.01096 c 0.09915,0.006 0.441643,0.01594 0.761108,0.02203 0.903471,0.01721 2.74205,0.07164 2.751867,0.08145 0.0048,0.0048 -0.06181,0.0088 -0.14814,0.0088 -0.08633,0 -0.554259,0.01801 -1.039848,0.04003 -1.11977,0.05077 -1.889099,0.07182 -2.335001,0.06392 l -0.350511,-0.0062 -0.180263,-0.247858 c -0.09915,-0.136323 -0.185584,-0.248443 -0.192088,-0.249156 -0.01119,-0.0013 -0.06949,0.196538 -0.365478,1.240514 -0.07027,0.247861 -0.184429,0.648945 -0.253679,0.891298 -0.06925,0.242352 -0.134041,0.469934 -0.14398,0.505737 l -0.01808,0.06509 h -0.189336 c -0.138091,0 -0.189383,-0.0068 -0.189383,-0.02503 z"
         id="path1517"
         sodipodi:nodetypes="csssssssssssscsscsssscsssssssssssccssssssssssscssssccscsscsssssccssssscsssssssscccsssssccssssccsss"
         inkscape:export-filename="/var/www/html/rapimed/img/logo-cabecera.png"
         inkscape:export-xdpi="72"
         inkscape:export-ydpi="72" />
    </g>
  </g>
</svg>
